<mxfile>
  <diagram name="总览" id="总览">
    <mxGraphModel grid="0">
      <root>
        <mxCell id="0" />
        <mxCell id="1" parent="0" />
      </root>
    </mxGraphModel>
  </diagram>
  <diagram name="The Linux GDT" id="The Linux GDT">
    <mxGraphModel grid="0">
      <root>
        <mxCell id="0" />
        <mxCell id="1" parent="0" />
      </root>
    </mxGraphModel>
  </diagram>
  <diagram name="The Linux LDTs" id="The Linux LDTs">
    <mxGraphModel grid="0">
      <root>
        <mxCell id="0" />
        <mxCell id="1" parent="0" />
      </root>
    </mxGraphModel>
  </diagram>
  <diagram name="补充" id="补充">
    <mxGraphModel grid="0">
      <root>
        <mxCell id="0" />
        <mxCell id="1" parent="0" />
      </root>
    </mxGraphModel>
  </diagram>
</mxfile>
